<svg width="14" height="16" viewBox="0 0 14 16" fill="none" xmlns="http://www.w3.org/2000/svg">
<path d="M7 0C3.13989 0 0 3.13989 0 7C0 9.58844 1.41556 11.8471 3.51011 13.0589L1.90244 14.1307C1.76361 14.2232 1.65822 14.358 1.60186 14.5151C1.5455 14.6722 1.54115 14.8432 1.58945 15.0029C1.63776 15.1626 1.73615 15.3026 1.8701 15.4021C2.00405 15.5016 2.16646 15.5554 2.33333 15.5556H11.6667C11.8336 15.5556 11.9961 15.5019 12.1302 15.4025C12.2643 15.303 12.3628 15.1631 12.4112 15.0033C12.4596 14.8435 12.4553 14.6724 12.399 14.5153C12.3426 14.3581 12.2372 14.2233 12.0983 14.1307L10.4907 13.0589C12.5844 11.8471 14 9.58844 14 7C14 3.13989 10.8601 0 7 0ZM7 12.4444C3.99856 12.4444 1.55556 10.0014 1.55556 7C1.55556 3.99856 3.99856 1.55556 7 1.55556C10.0014 1.55556 12.4444 3.99856 12.4444 7C12.4444 10.0014 10.0014 12.4444 7 12.4444Z" fill="#9595A5"/>
<circle cx="7.00022" cy="7" r="3.88889" fill="#9595A5"/>
</svg>
