<?xml version="1.0" encoding="iso-8859-1"?>
<!-- Generator: Adobe Illustrator 19.0.0, SVG Export Plug-In . SVG Version: 6.00 Build 0)  -->
<svg version="1.1" id="Capa_1" xmlns="http://www.w3.org/2000/svg" xmlns:xlink="http://www.w3.org/1999/xlink" x="0px"
     y="0px"
     viewBox="0 0 512 512" style="enable-background:new 0 0 512 512;" xml:space="preserve">
<g>
		<path d="M256,153.6c-43.52,0-76.8,35.84-76.8,76.8c0,15.36,12.8,25.6,25.6,25.6c15.36,0,25.6-10.24,25.6-25.6
			c0-12.8,12.8-25.6,25.6-25.6c15.36,0,25.6-10.24,25.6-25.6S268.8,153.6,256,153.6z"/>
</g>
  <g>
		<path d="M389.12,419.84C448,376.32,486.4,307.2,486.4,230.4C486.4,102.4,384,0,256,0S25.6,102.4,25.6,230.4
			c0,76.8,38.4,143.36,94.72,186.88L51.2,491.52c-5.12,7.68,0,20.48,10.24,20.48h381.44c10.24,0,15.36-12.8,10.24-20.48
			L389.12,419.84z M256,358.4c-69.12,0-128-56.32-128-128c0-69.12,58.88-128,128-128s128,56.32,128,128
			C384,299.52,327.68,358.4,256,358.4z"/>
</g>
</svg>
