<svg width="16" height="16" viewBox="0 0 16 16" fill="currentColor" xmlns="http://www.w3.org/2000/svg">
<path d="M8 0C3.58214 0 0 3.58214 0 8C0 12.4179 3.58214 16 8 16C12.4179 16 16 12.4179 16 8C16 3.58214 12.4179 0 8 0ZM11.1518 10.4589L10.6411 11.1554C10.63 11.1705 10.616 11.1833 10.5999 11.1931C10.5838 11.2028 10.566 11.2093 10.5474 11.2121C10.5288 11.2149 10.5098 11.214 10.4916 11.2095C10.4733 11.205 10.4562 11.1969 10.4411 11.1857L7.4875 9.03214C7.4691 9.01893 7.45414 9.00149 7.44389 8.98129C7.43363 8.96109 7.42838 8.93872 7.42857 8.91607V4C7.42857 3.92143 7.49286 3.85714 7.57143 3.85714H8.43036C8.50893 3.85714 8.57321 3.92143 8.57321 4V8.41964L11.1196 10.2607C11.1839 10.3054 11.1982 10.3946 11.1518 10.4589Z" fill="currentColor"/>
</svg>
