<svg width="12" height="15" viewBox="0 0 12 15" fill="none" xmlns="http://www.w3.org/2000/svg">
<path d="M11.0835 4.5L10.5787 13.5825C10.5577 13.9655 10.3907 14.3258 10.1121 14.5894C9.83352 14.8531 9.46455 15 9.081 15H2.919C2.53545 15 2.16648 14.8531 1.88791 14.5894C1.60934 14.3258 1.44235 13.9655 1.42125 13.5825L0.9165 4.5H11.0835ZM0.75 0H11.25C11.4489 0 11.6397 0.0790176 11.7803 0.21967C11.921 0.360322 12 0.551088 12 0.75V2.25C12 2.44891 11.921 2.63968 11.7803 2.78033C11.6397 2.92098 11.4489 3 11.25 3H0.75C0.551088 3 0.360322 2.92098 0.21967 2.78033C0.0790178 2.63968 0 2.44891 0 2.25V0.75C0 0.551088 0.0790178 0.360322 0.21967 0.21967C0.360322 0.0790176 0.551088 0 0.75 0ZM4.5 6C4.30109 6 4.11032 6.07902 3.96967 6.21967C3.82902 6.36032 3.75 6.55109 3.75 6.75V12C3.75 12.1989 3.82902 12.3897 3.96967 12.5303C4.11032 12.671 4.30109 12.75 4.5 12.75C4.69891 12.75 4.88968 12.671 5.03033 12.5303C5.17098 12.3897 5.25 12.1989 5.25 12V6.75C5.25 6.55109 5.17098 6.36032 5.03033 6.21967C4.88968 6.07902 4.69891 6 4.5 6ZM7.5 6C7.30109 6 7.11032 6.07902 6.96967 6.21967C6.82902 6.36032 6.75 6.55109 6.75 6.75V12C6.75 12.1989 6.82902 12.3897 6.96967 12.5303C7.11032 12.671 7.30109 12.75 7.5 12.75C7.69891 12.75 7.88968 12.671 8.03033 12.5303C8.17098 12.3897 8.25 12.1989 8.25 12V6.75C8.25 6.55109 8.17098 6.36032 8.03033 6.21967C7.88968 6.07902 7.69891 6 7.5 6Z" fill="#9595A5"/>
</svg>
