<?xml version="1.0" encoding="iso-8859-1"?>
<!-- Generator: Adobe Illustrator 16.0.0, SVG Export Plug-In . SVG Version: 6.00 Build 0)  -->
<!DOCTYPE svg PUBLIC "-//W3C//DTD SVG 1.1//EN" "http://www.w3.org/Graphics/SVG/1.1/DTD/svg11.dtd">
<svg version="1.1" id="Capa_1" xmlns="http://www.w3.org/2000/svg" xmlns:xlink="http://www.w3.org/1999/xlink" x="0px" y="0px"
	 width="249.499px" height="249.499px" viewBox="0 0 249.499 249.499" style="enable-background:new 0 0 249.499 249.499;"
	 xml:space="preserve">
<g>
	<path d="M7.079,214.851l25.905,26.276c9.536,9.674,25.106,9.782,34.777,0.252l56.559-55.761l55.739,56.548
		c9.542,9.674,25.112,9.782,34.78,0.246l26.265-25.887c9.674-9.536,9.788-25.106,0.246-34.786l-55.742-56.547l56.565-55.754
		c9.667-9.536,9.787-25.106,0.239-34.786L216.52,8.375c-9.541-9.667-25.111-9.782-34.779-0.252l-56.568,55.761L69.433,7.331
		C59.891-2.337,44.32-2.451,34.65,7.079L8.388,32.971c-9.674,9.542-9.791,25.106-0.252,34.786l55.745,56.553l-56.55,55.767
		C-2.343,189.607-2.46,205.183,7.079,214.851z"/>
</g>
<g>
</g>
<g>
</g>
<g>
</g>
<g>
</g>
<g>
</g>
<g>
</g>
<g>
</g>
<g>
</g>
<g>
</g>
<g>
</g>
<g>
</g>
<g>
</g>
<g>
</g>
<g>
</g>
<g>
</g>
</svg>
