<svg width="16" height="15" viewBox="0 0 16 15" fill="none" xmlns="http://www.w3.org/2000/svg">
<path d="M15.9353 6.49381C15.8831 6.08673 15.6535 5.73272 15.3057 5.52183C14.9641 5.31514 14.5516 5.27674 14.1697 5.41988C13.8664 5.53299 13.5269 5.37657 13.3892 5.06795C13.2271 4.70346 13.0267 4.35432 12.7951 4.03035C12.5941 3.74965 12.6316 3.38097 12.8813 3.17428C13.1909 2.9194 13.3634 2.54234 13.3558 2.14015C13.3474 1.73166 13.1561 1.3546 12.8292 1.10673C12.2977 0.702442 11.7175 0.365871 11.1047 0.106839C10.7255 -0.0530512 10.3026 -0.0321035 9.94572 0.165493C9.59511 0.358899 9.3558 0.697565 9.29042 1.09417C9.23685 1.41676 8.93495 1.62555 8.59129 1.59691C8.20243 1.5557 7.79685 1.5557 7.40731 1.59691C7.05878 1.62555 6.76175 1.41745 6.70886 1.09485C6.64348 0.697533 6.40485 0.358899 6.05424 0.16546C5.69597 -0.0321362 5.27441 -0.053804 4.89458 0.106119C4.28102 0.365871 3.70085 0.702443 3.17008 1.10601C2.84383 1.3546 2.65183 1.73094 2.64417 2.13943C2.63582 2.54162 2.80904 2.91937 3.11859 3.17565C3.36902 3.38235 3.4059 3.74962 3.20484 4.03101C2.9725 4.35638 2.77216 4.70484 2.61074 5.06792C2.47232 5.37795 2.12934 5.53296 1.82328 5.41706C1.44903 5.27671 1.0379 5.3151 0.694922 5.5218C0.347086 5.73196 0.116837 6.08598 0.0646629 6.49309C0.0215543 6.82756 0 7.16623 0 7.49999C0 7.83374 0.0215543 8.17241 0.0646955 8.50617C0.116869 8.91324 0.346434 9.26798 0.69427 9.47814C1.03721 9.68552 1.44906 9.72532 1.83097 9.5801C2.12872 9.46908 2.47235 9.62199 2.61081 9.93202C2.77219 10.2951 2.97254 10.6442 3.2049 10.9696C3.40594 11.2503 3.36837 11.6183 3.11794 11.8257C2.80907 12.0806 2.63654 12.4576 2.6442 12.8598C2.65255 13.2683 2.84386 13.6454 3.17011 13.894C3.7002 14.2968 4.28037 14.6334 4.89462 14.8939C5.06298 14.9651 5.23965 15 5.41567 15C5.6362 15 5.85533 14.9448 6.05359 14.8345C6.4042 14.6411 6.64351 14.3018 6.70889 13.9058C6.76247 13.5832 7.06785 13.3689 7.40802 13.4038C7.79688 13.445 8.20247 13.445 8.59201 13.4038C8.93776 13.3696 9.23688 13.5832 9.29045 13.9058C9.35655 14.3024 9.59515 14.6411 9.94576 14.8345C10.304 15.0328 10.7256 15.0531 11.1047 14.8939C11.7183 14.6341 12.2984 14.2975 12.8292 13.894C13.1555 13.6454 13.3468 13.2683 13.3551 12.8598C13.3628 12.4576 13.1896 12.0806 12.8793 11.825C12.6295 11.6183 12.5927 11.251 12.7937 10.9697C13.0261 10.6456 13.2257 10.2958 13.3878 9.93274C13.527 9.62203 13.872 9.46979 14.1683 9.58013L14.176 9.58291C14.5517 9.72536 14.9635 9.68556 15.305 9.47886C15.6536 9.26798 15.8824 8.91396 15.9346 8.50757C15.9784 8.17519 16 7.83656 16 7.49999C16 7.16341 15.9784 6.82478 15.9353 6.49381ZM7.99997 10.6421C6.27406 10.6421 4.86954 9.23236 4.86954 7.49999C4.86954 5.76761 6.27406 4.35782 7.99997 4.35782C9.72587 4.35782 11.1304 5.76761 11.1304 7.49999C11.1304 9.23236 9.72587 10.6421 7.99997 10.6421Z" fill="#9595A5"/>
</svg>
