<svg width="12" height="10" viewBox="0 0 12 10" fill="none" xmlns="http://www.w3.org/2000/svg">
<path d="M10.5219 0.97863C9.93033 0.347563 9.11856 0 8.23599 0C7.57629 0 6.97213 0.205125 6.44025 0.609628C6.17187 0.81381 5.92869 1.06361 5.71428 1.35518C5.49996 1.0637 5.2567 0.81381 4.98823 0.609628C4.45644 0.205125 3.85228 0 3.19257 0C2.31001 0 1.49815 0.347563 0.906546 0.97863C0.322004 1.60232 0 2.45438 0 3.37795C0 4.32854 0.360195 5.19869 1.13351 6.11644C1.8253 6.93737 2.81956 7.77073 3.97095 8.73572C4.3641 9.06528 4.80974 9.43882 5.27248 9.83672C5.39472 9.94203 5.55158 10 5.71428 10C5.8769 10 6.03385 9.94203 6.15592 9.83689C6.61865 9.43891 7.06456 9.06519 7.45788 8.73547C8.60909 7.77064 9.60336 6.93737 10.2951 6.11635C11.0685 5.19869 11.4286 4.32854 11.4286 3.37787C11.4286 2.45438 11.1066 1.60232 10.5219 0.97863Z" fill="#9595a5"/>
</svg>
