<?xml version="1.0" encoding="iso-8859-1"?>
<!-- Generator: Adobe Illustrator 19.0.0, SVG Export Plug-In . SVG Version: 6.00 Build 0)  -->
<svg version="1.1" id="Capa_1" xmlns="http://www.w3.org/2000/svg" xmlns:xlink="http://www.w3.org/1999/xlink" x="0px" y="0px"
	 viewBox="0 0 219 219" style="enable-background:new 0 0 219 219;" xml:space="preserve">
<path d="M109.848,0h-0.211C77.784,0,52.5,23.913,52.5,54.441v105.605C52.5,191.452,80.345,219,111.709,219h0.791v-26h-0.791
	C95.117,193,78.5,176.678,78.5,160.047V54.441C78.5,38.493,92.363,26,109.637,26h0.211c17.095,0,29.652,12.228,29.652,28.441v75.229
	c0,7.351-5.009,13.33-11.575,13.33h-0.124c-6.787,0-13.301-6.354-13.301-13.33V66h-25v63.67c0,21.493,17.011,38.33,38.301,38.33
	h0.124c21.454,0,38.575-17.194,38.575-38.33V54.441C166.5,23.913,141.802,0,109.848,0z"/>
<g>
</g>
</svg>
