<svg width="20" height="14" viewBox="0 0 20 14" fill="none" xmlns="http://www.w3.org/2000/svg">
<path d="M3.43507 0.5C1.75436 2.16407 0.714355 4.46252 0.714355 7C0.714355 9.53748 1.75436 11.8359 3.43507 13.5L4.74436 12.2037C3.39793 10.8798 2.5715 9.04102 2.5715 7C2.5715 4.96818 3.39793 3.12023 4.74436 1.79632L3.43507 0.5ZM16.5651 0.5L15.2558 1.79632C16.6022 3.12023 17.4286 4.96818 17.4286 7C17.4286 9.04102 16.6022 10.8798 15.2558 12.2037L16.5651 13.5C18.2458 11.8359 19.2858 9.53748 19.2858 7C19.2858 4.46252 18.2458 2.16407 16.5651 0.5ZM6.06293 3.10184C5.05078 4.10396 4.42864 5.48303 4.42864 7C4.42864 8.51697 5.05078 9.89604 6.06293 10.8982L7.37221 9.60184C6.70364 8.93989 6.28578 8.02051 6.28578 7C6.28578 5.97949 6.70364 5.06011 7.37221 4.39816L6.06293 3.10184ZM13.9372 3.10184L12.6279 4.39816C13.2965 5.06011 13.7144 5.97949 13.7144 7C13.7144 8.02051 13.2965 8.93989 12.6279 9.60184L13.9372 10.8982C14.9494 9.89604 15.5715 8.51697 15.5715 7C15.5715 5.48303 14.9494 4.10396 13.9372 3.10184ZM10.0001 5.16124C9.50752 5.16124 9.03515 5.35497 8.68687 5.6998C8.33859 6.04464 8.14293 6.51233 8.14293 7C8.14293 7.48767 8.33859 7.95536 8.68687 8.3002C9.03515 8.64503 9.50752 8.83876 10.0001 8.83876C10.4926 8.83876 10.965 8.64503 11.3133 8.3002C11.6615 7.95536 11.8572 7.48767 11.8572 7C11.8572 6.51233 11.6615 6.04464 11.3133 5.6998C10.965 5.35497 10.4926 5.16124 10.0001 5.16124Z" fill="white"/>
</svg>
