<svg width="31" height="32" viewBox="0 0 31 32" fill="none" xmlns="http://www.w3.org/2000/svg">
<path d="M30.7696 22.1639C29.7024 24.718 27.9921 26.9364 25.8409 28.6166L16.2003 11.893C14.594 9.13936 11.0863 8.18869 8.36544 9.795C5.61177 11.3685 4.69388 14.8762 6.26741 17.6298L14.512 31.9317C6.37309 31.1812 0 24.3348 0 16C0 7.16344 7.16344 0 16 0C22.3349 0 27.81 3.68161 30.4022 9.02194C29.1128 8.91605 27.7762 9.19134 26.5596 9.8937C23.3798 11.7295 22.298 15.7616 24.1337 18.9087C25.5284 21.3244 28.1907 22.5293 30.7696 22.1639Z" fill="#C1C1CC"/>
</svg>
