<?xml version="1.0" encoding="iso-8859-1"?>
<!-- Generator: Adobe Illustrator 19.0.0, SVG Export Plug-In . SVG Version: 6.00 Build 0)  -->
<svg version="1.1" id="Capa_1" xmlns="http://www.w3.org/2000/svg" xmlns:xlink="http://www.w3.org/1999/xlink" x="0px" y="0px"
	 viewBox="0 0 450.56 450.56" style="enable-background:new 0 0 450.56 450.56;" xml:space="preserve">
<g>
	<g>
		<g>
			<path d="M225.322,332.758c46.342-0.023,83.903-37.585,83.926-83.926V83.456C308.966,37.282,271.455-0.001,225.28,0
				c-46.175-0.001-83.686,37.282-83.968,83.456v165.376C141.335,295.206,178.947,332.781,225.322,332.758z"/>
			<path d="M336.384,151.04v99.328c-0.01,61.361-49.761,111.096-111.122,111.086c-61.347-0.01-111.076-49.739-111.086-111.086
				V151.04h-30.72v99.328c-0.138,72.4,54.465,133.193,126.464,140.8v28.672h-60.928v30.72h152.576v-30.72H240.64v-28.672
				c71.999-7.607,126.602-68.4,126.464-140.8V151.04H336.384z"/>
		</g>
	</g>
</g>
<g>
</g>
<g>
</g>
<g>
</g>
<g>
</g>
<g>
</g>
<g>
</g>
<g>
</g>
<g>
</g>
<g>
</g>
<g>
</g>
<g>
</g>
<g>
</g>
<g>
</g>
<g>
</g>
<g>
</g>
</svg>
