<svg height="14pt" viewBox="0 -35 416.24479 416" width="416pt" xmlns="http://www.w3.org/2000/svg" fill="#fff"><path d="m65 250.476562 147 95.210938v-345.566406l-147 95.210937zm0 0"/><path d="m 8 94.9063 h 65 v 156 h -66 Z m 0 0"/><path d="m413.898438 113.503906c-3.121094-3.121094-8.1875-3.121094-11.3125 0l-48.082032 48.085938-48.082031-48.085938c-2.019531-2.039062-4.972656-2.84375-7.746094-2.105468-2.773437.734374-4.941406 2.902343-5.675781 5.675781-.738281 2.773437.066406 5.726562 2.109375 7.746093l48.082031 48.085938-48.082031 48.082031c-3.125 3.125-3.128906 8.191407-.003906 11.316407s8.191406 3.125 11.316406 0l48.082031-48.082032 48.085938 48.082032c3.125 3.125 8.1875 3.125 11.3125 0s3.121094-8.191407-.003906-11.316407l-48.078126-48.082031 48.078126-48.082031c3.128906-3.125 3.128906-8.195313 0-11.320313zm0 0"/></svg>