<svg width="18" height="18" viewBox="0 0 18 18" fill="none" xmlns="http://www.w3.org/2000/svg">
<path d="M16.9114 18L9.42 10.5171C9.38571 10.5171 9.36 10.5171 9.33429 10.5171C8.39143 10.5171 7.62 9.75429 7.62 8.80286C7.62 8.77714 7.62 8.75143 7.62 8.71714L6.24857 7.33714C6.03429 7.78286 5.90571 8.27143 5.90571 8.80286C5.90571 9.75429 6.29143 10.6114 6.90857 11.2286L5.7 12.4371C4.76571 11.5029 4.19143 10.2171 4.19143 8.80286C4.19143 7.8 4.48286 6.86571 4.98857 6.07714L3.76286 4.83429C2.94857 5.94857 2.47714 7.32 2.47714 8.80286C2.47714 10.7057 3.24 12.42 4.48286 13.6543L3.27429 14.8629C1.72286 13.3114 0.762857 11.1686 0.762857 8.80286C0.762857 6.84857 1.42286 5.05714 2.52857 3.61714L0 1.08857L1.09714 0L18 16.9114L16.9114 18ZM12.7029 9.42857L14.0743 10.8C14.3314 10.1829 14.4771 9.51429 14.4771 8.80286C14.4771 7.38857 13.9029 6.10286 12.9686 5.16857L11.76 6.37714C12.3771 6.99429 12.7629 7.85143 12.7629 8.80286C12.7629 9.01714 12.7371 9.23143 12.7029 9.42857ZM15.36 12.0857L16.62 13.3286C17.4257 12.0171 17.9057 10.4657 17.9057 8.80286C17.9057 6.43714 16.9457 4.29429 15.3943 2.74286L14.1857 3.95143C15.4286 5.18571 16.1914 6.90857 16.1914 8.80286C16.1914 9.99429 15.8914 11.1171 15.36 12.0857Z" fill="white"/>
</svg>
