<?xml version="1.0" encoding="iso-8859-1"?>
<!-- Generator: Adobe Illustrator 16.0.0, SVG Export Plug-In . SVG Version: 6.00 Build 0)  -->
<!DOCTYPE svg PUBLIC "-//W3C//DTD SVG 1.1//EN" "http://www.w3.org/Graphics/SVG/1.1/DTD/svg11.dtd">
<svg version="1.1" id="Capa_1" xmlns="http://www.w3.org/2000/svg" xmlns:xlink="http://www.w3.org/1999/xlink" x="0px" y="0px"
	 width="46.237px" height="46.237px" viewBox="0 0 46.237 46.237" style="enable-background:new 0 0 46.237 46.237;"
	 xml:space="preserve">
<g>
	<g>
		<path d="M38.296,27.178v-9.393c0-6.357-3.941-11.767-9.492-14.034h0.054C27.886,1.554,25.683,0,23.119,0
			c-2.567,0-4.769,1.554-5.738,3.751h0.051c-5.55,2.267-9.491,7.677-9.491,14.034v9.395c-3.158,0.028-5.7,2.609-5.7,5.791v1.248
			c0,3.198,2.582,5.795,5.781,5.795h30.193c3.198,0,5.78-2.597,5.78-5.795v-1.248C43.995,29.788,41.454,27.207,38.296,27.178z"/>
		<path d="M17.568,46.237c2.565,0,4.768-1.554,5.737-3.751H11.828C12.797,44.684,15.002,46.237,17.568,46.237z"/>
	</g>
</g>
<g>
</g>
<g>
</g>
<g>
</g>
<g>
</g>
<g>
</g>
<g>
</g>
<g>
</g>
<g>
</g>
<g>
</g>
<g>
</g>
<g>
</g>
<g>
</g>
<g>
</g>
<g>
</g>
<g>
</g>
</svg>
