<svg width="21" height="18" viewBox="0 0 21 18" fill="none" xmlns="http://www.w3.org/2000/svg">
<path d="M14.5687 14.5616C15.0099 15.0029 15.0139 15.7247 14.5211 16.1075C13.1876 17.1434 11.5828 17.7881 9.88738 17.9561C7.81542 18.1614 5.73637 17.642 4.00446 16.4863C2.27254 15.3306 0.994901 13.6102 0.389218 11.6181C-0.216465 9.62603 -0.11272 7.48558 0.682776 5.56144C1.47827 3.63729 2.9163 2.04848 4.75187 1.06569C6.58744 0.08291 8.70697 -0.233041 10.7494 0.171669C12.7918 0.57638 14.6307 1.67671 15.9527 3.2852C17.2748 4.89369 17.9983 6.91082 18 8.99292H15.75C15.7514 7.4312 15.2112 5.91733 14.2214 4.70926C13.2317 3.50119 11.8537 2.67369 10.3222 2.36777C8.79078 2.06184 7.20062 2.29642 5.82273 3.03153C4.44484 3.76664 3.36448 4.95679 2.76575 6.39919C2.16703 7.84158 2.08697 9.44695 2.53924 10.9418C2.99151 12.4366 3.94811 13.7283 5.24604 14.5968C6.54397 15.4654 8.1029 15.857 9.6572 15.7049C10.8345 15.5897 11.9539 15.1681 12.9078 14.4907C13.4166 14.1295 14.1275 14.1204 14.5687 14.5616ZM13.2285 9.84648C12.9136 9.53149 13.1366 8.99292 13.5821 8.99292H20.1679C20.6133 8.99292 20.8364 9.53149 20.5214 9.84648L17.2285 13.1394C17.0333 13.3346 16.7167 13.3346 16.5214 13.1394L13.2285 9.84648Z" fill="#9595A5"/>
</svg>
