<svg width="15" height="14" viewBox="0 0 15 14" fill="none" xmlns="http://www.w3.org/2000/svg">
<path d="M1.10626 0.0758798L14.1259 6.30329C14.2573 6.3662 14.3682 6.465 14.4459 6.58828C14.5236 6.71156 14.5648 6.85429 14.5648 7C14.5648 7.14571 14.5236 7.28844 14.4459 7.41172C14.3682 7.535 14.2573 7.6338 14.1259 7.69671L1.10626 13.9241C0.972735 13.9881 0.823628 14.0124 0.676698 13.994C0.529769 13.9757 0.391209 13.9155 0.277522 13.8206C0.163834 13.7258 0.0798119 13.6002 0.0354615 13.4589C-0.00888898 13.3177 -0.0116982 13.1666 0.0273685 13.0238L1.32995 8.24851C1.34589 8.18999 1.37871 8.13745 1.42431 8.09745C1.46991 8.05746 1.52628 8.03177 1.58638 8.02359L7.89536 7.16653C7.92167 7.16284 7.94658 7.15243 7.96769 7.1363C7.98879 7.12017 8.00538 7.09887 8.01586 7.07446L8.02698 7.03553C8.03185 7.00103 8.02492 6.9659 8.00731 6.93584C7.9897 6.90577 7.96244 6.88255 7.92997 6.86993L7.89598 6.86066L1.59318 6.00422C1.53319 5.99593 1.47696 5.97019 1.43147 5.9302C1.38599 5.89021 1.35327 5.83773 1.33736 5.7793L0.0273685 0.976192C-0.0116982 0.833367 -0.00888898 0.682324 0.0354615 0.541051C0.0798119 0.399778 0.163834 0.27423 0.277522 0.179361C0.391209 0.0844916 0.529769 0.024299 0.676698 0.00595244C0.823628 -0.0123941 0.972735 0.0118787 1.10626 0.0758798Z" fill="white"/>
</svg>
