<?xml version="1.0" encoding="iso-8859-1"?>
<!-- Generator: Adobe Illustrator 16.0.0, SVG Export Plug-In . SVG Version: 6.00 Build 0)  -->
<!DOCTYPE svg PUBLIC "-//W3C//DTD SVG 1.1//EN" "http://www.w3.org/Graphics/SVG/1.1/DTD/svg11.dtd">
<svg version="1.1" id="Capa_1" x="0px" y="0px"
	 viewBox="0 0 490.667 490.667" style="enable-background:new 0 0 490.667 490.667;" xmlns="http://www.w3.org/2000/svg" xmlns:xlink="http://www.w3.org/1999/xlink" xml:space="preserve">
<g>
	<g>
		<path d="M488.683,214.592c-1.6-12.437-8.64-23.253-19.307-29.696c-10.475-6.315-23.125-7.488-34.837-3.115
			c-9.301,3.456-19.712-1.323-23.936-10.752c-4.971-11.136-11.115-21.803-18.219-31.701c-6.165-8.576-5.013-19.84,2.645-26.155
			c9.493-7.787,14.784-19.307,14.549-31.595c-0.256-12.48-6.123-24-16.149-31.573c-16.299-12.352-34.091-22.635-52.885-30.549
			c-11.627-4.885-24.597-4.245-35.541,1.792c-10.752,5.909-18.091,16.256-20.096,28.373c-1.643,9.856-10.901,16.235-21.44,15.36
			c-11.925-1.259-24.363-1.259-36.309,0c-10.688,0.875-19.797-5.483-21.419-15.339c-2.005-12.139-9.323-22.485-20.075-28.395
			c-10.987-6.037-23.915-6.699-35.563-1.813c-18.816,7.936-36.608,18.219-52.885,30.549c-10.005,7.595-15.893,19.093-16.128,31.573
			c-0.256,12.288,5.056,23.829,14.549,31.659c7.68,6.315,8.811,17.536,2.645,26.133c-7.125,9.941-13.269,20.587-18.219,31.68
			c-4.245,9.472-14.763,14.208-24.149,10.667c-11.477-4.288-24.085-3.115-34.603,3.2c-10.667,6.421-17.728,17.237-19.328,29.675
			C0.661,224.789,0,235.136,0,245.333s0.661,20.544,1.984,30.741c1.6,12.437,8.64,23.275,19.307,29.696
			c10.517,6.336,23.147,7.552,34.859,3.115c9.131-3.392,19.669,1.28,23.915,10.752c4.949,11.093,11.093,21.76,18.219,31.701
			c6.165,8.576,5.013,19.819-2.667,26.155c-9.472,7.787-14.763,19.307-14.528,31.595c0.256,12.48,6.123,24,16.128,31.595
			c16.256,12.309,34.048,22.592,52.885,30.549c5.163,2.176,10.581,3.243,15.979,3.243c6.763,0,13.483-1.685,19.563-5.056
			c10.752-5.909,18.091-16.277,20.096-28.373c1.643-9.856,11.008-16.405,21.44-15.339c11.925,1.259,24.363,1.259,36.309,0
			c10.603-1.045,19.776,5.483,21.419,15.339c2.027,12.117,9.344,22.464,20.096,28.373c10.987,6.059,23.915,6.677,35.541,1.813
			c18.816-7.936,36.608-18.219,52.885-30.549c10.005-7.595,15.872-19.115,16.128-31.595c0.235-12.288-5.077-23.808-14.592-31.616
			c-7.659-6.315-8.789-17.536-2.624-26.133c7.125-9.899,13.248-20.587,18.219-31.68c4.267-9.493,14.848-14.144,23.936-10.773
			l0.235,0.085c11.52,4.352,24.149,3.136,34.624-3.179c10.688-6.443,17.707-17.259,19.307-29.675
			c1.344-10.155,2.005-20.501,2.005-30.784S490.005,224.704,488.683,214.592z M245.333,341.333c-52.928,0-96-43.072-96-96
			s43.072-96,96-96c52.928,0,96,43.072,96,96S298.261,341.333,245.333,341.333z"/>
	</g>
</g>
<g>
</g>
<g>
</g>
<g>
</g>
<g>
</g>
<g>
</g>
<g>
</g>
<g>
</g>
<g>
</g>
<g>
</g>
<g>
</g>
<g>
</g>
<g>
</g>
<g>
</g>
<g>
</g>
<g>
</g>
</svg>
