<?xml version="1.0" encoding="iso-8859-1"?>
<!-- Generator: Adobe Illustrator 19.0.0, SVG Export Plug-In . SVG Version: 6.00 Build 0)  -->
<svg version="1.1" id="Capa_1" xmlns="http://www.w3.org/2000/svg" xmlns:xlink="http://www.w3.org/1999/xlink" x="0px" y="0px"
	 viewBox="0 0 478.72 478.72" style="enable-background:new 0 0 478.72 478.72;" xml:space="preserve">
<g>
	<g>
		<path d="M427.52,171.091h-17.067V51.625c-0.002-9.426-7.645-17.065-17.071-17.063c-2.174,0-4.327,0.416-6.345,1.225
			L134.946,136.958H51.2c-28.277,0-51.2,22.923-51.2,51.2v68.267c0,28.277,22.923,51.2,51.2,51.2h0.853v119.467
			c0,9.426,7.641,17.067,17.067,17.067h68.267c9.426,0,17.067-7.641,17.067-17.067v-111.65l232.585,93.355
			c2.016,0.818,4.173,1.236,6.349,1.229c9.426,0,17.067-7.641,17.067-17.067V273.491h17.067c28.277,0,51.2-22.923,51.2-51.2
			S455.797,171.091,427.52,171.091z"/>
	</g>
</g>
<g>
</g>
<g>
</g>
<g>
</g>
<g>
</g>
<g>
</g>
<g>
</g>
<g>
</g>
<g>
</g>
<g>
</g>
<g>
</g>
<g>
</g>
<g>
</g>
<g>
</g>
<g>
</g>
<g>
</g>
</svg>
