<svg width="18" height="17" viewBox="0 0 18 17" xmlns="http://www.w3.org/2000/svg">
<path d="M1.95435 0.318905C1.74009 0.111963 1.45312 -0.00254547 1.15524 4.29461e-05C0.857373 0.00263137 0.572435 0.12211 0.361801 0.332745C0.151166 0.543379 0.0316873 0.828317 0.0290989 1.12619C0.0265105 1.42406 0.141019 1.71103 0.347961 1.92529L6.90871 8.48604L0.346825 15.0468C0.23832 15.1516 0.151772 15.2769 0.0922326 15.4155C0.0326928 15.5542 0.0013537 15.7032 4.28943e-05 15.8541C-0.00126791 16.0049 0.0274761 16.1545 0.0845982 16.2941C0.14172 16.4337 0.226076 16.5606 0.332744 16.6673C0.439412 16.7739 0.566255 16.8583 0.705873 16.9154C0.84549 16.9725 0.995086 17.0013 1.14593 17C1.29678 16.9986 1.44585 16.9673 1.58445 16.9078C1.72306 16.8482 1.84842 16.7617 1.95321 16.6532L8.5151 10.0924L15.0758 16.6532C15.2901 16.8601 15.5771 16.9746 15.8749 16.972C16.1728 16.9694 16.4578 16.85 16.6684 16.6393C16.879 16.4287 16.9985 16.1438 17.0011 15.8459C17.0037 15.548 16.8892 15.261 16.6822 15.0468L10.1215 8.48604L16.6822 1.92529C16.8892 1.71103 17.0037 1.42406 17.0011 1.12619C16.9985 0.828317 16.879 0.543379 16.6684 0.332745C16.4578 0.12211 16.1728 0.00263137 15.8749 4.29461e-05C15.5771 -0.00254547 15.2901 0.111963 15.0758 0.318905L8.5151 6.87965L1.95435 0.317769V0.318905Z" fill="#9595A5"/>
</svg>
