<svg width="20" height="16" viewBox="0 0 20 16" fill="none" xmlns="http://www.w3.org/2000/svg">
<path d="M17.675 3.98747C17.688 4.16289 17.688 4.3373 17.688 4.51172C17.688 9.84939 13.6254 16 6.20073 16C3.91329 16 1.78825 15.3374 0 14.1867C0.324771 14.2238 0.637514 14.2368 0.975316 14.2368C2.79262 14.2412 4.55847 13.6335 5.98822 12.5117C5.14564 12.4965 4.32886 12.2185 3.65191 11.7166C2.97497 11.2146 2.47165 10.5139 2.21225 9.71207C2.46185 9.74915 2.71244 9.77421 2.97507 9.77421C3.33692 9.77421 3.70079 9.72409 4.03859 9.63689C3.12418 9.45226 2.30194 8.95662 1.71168 8.23424C1.12143 7.51186 0.799592 6.60734 0.800902 5.67448V5.62436C1.33918 5.92407 1.96366 6.11151 2.62523 6.13657C2.07101 5.76828 1.61656 5.26854 1.30243 4.68191C0.988307 4.09528 0.824271 3.44003 0.824959 2.77459C0.824959 2.02481 1.02443 1.33718 1.37426 0.737753C2.38881 1.98574 3.65418 3.0067 5.08842 3.73453C6.52266 4.46235 8.09378 4.88081 9.70004 4.96279C9.63789 4.66207 9.5998 4.35033 9.5998 4.03759C9.59953 3.50729 9.70379 2.98214 9.9066 2.49216C10.1094 2.00218 10.4068 1.55697 10.7818 1.182C11.1568 0.807018 11.602 0.509622 12.092 0.306807C12.5819 0.103993 13.1071 -0.000263004 13.6374 4.98246e-07C14.8001 4.98246e-07 15.8496 0.487157 16.5874 1.27503C17.4913 1.10023 18.3581 0.770252 19.1495 0.299712C18.8482 1.23274 18.217 2.02391 17.3743 2.525C18.176 2.43356 18.9595 2.22273 19.6988 1.89951C19.1466 2.70452 18.4624 3.41044 17.675 3.98747Z" fill="#C1C1CC"/>
</svg>
