<?xml version="1.0" encoding="iso-8859-1"?>
<!-- Generator: Adobe Illustrator 16.0.0, SVG Export Plug-In . SVG Version: 6.00 Build 0)  -->
<!DOCTYPE svg PUBLIC "-//W3C//DTD SVG 1.1//EN" "http://www.w3.org/Graphics/SVG/1.1/DTD/svg11.dtd">
<svg width="13" height="14" viewBox="0 0 12 14" fill="none" xmlns="http://www.w3.org/2000/svg">
<path d="M6 6.5C7.65685 6.5 9 5.15685 9 3.5C9 1.84315 7.65685 0.5 6 0.5C4.34314 0.5 2.99999 1.84315 2.99999 3.5C2.99999 5.15685 4.34314 6.5 6 6.5Z" fill="#9595A5"/>
<path d="M11.825 9.621C8.45 6.788 3.549 6.788 0.174 9.621C0.064 9.714 0 9.85 0 9.995C0 10.478 0 11.646 0 12.501C0 13.053 0.448 13.5 1 13.5H11C11.552 13.5 12 13.053 12 12.501V10.191C12 9.85 11.936 9.714 11.825 9.621Z" fill="#9595A5"/>
</svg>
