<?xml version="1.0" encoding="iso-8859-1"?>
<!DOCTYPE svg PUBLIC "-//W3C//DTD SVG 1.1//EN" "http://www.w3.org/Graphics/SVG/1.1/DTD/svg11.dtd">
<svg width="10" height="12" viewBox="0 0 10 12" fill="none" xmlns="http://www.w3.org/2000/svg">
  <path d="M5 5.58333C6.38072 5.58333 7.50001 4.46404 7.50001 3.08333C7.50001 1.70262 6.38072 0.583328 5 0.583328C3.61929 0.583328 2.5 1.70262 2.5 3.08333C2.5 4.46404 3.61929 5.58333 5 5.58333Z" fill="#9595a5"/>
  <path d="M9.85417 8.18415C7.04167 5.82332 2.9575 5.82332 0.145 8.18415C0.0533334 8.26165 0 8.37499 0 8.49582C0 8.89832 0 9.87165 0 10.5842C0 11.0442 0.373333 11.4167 0.833333 11.4167H9.16667C9.62667 11.4167 10 11.0442 10 10.5842V8.65915C10 8.37499 9.94667 8.26165 9.85417 8.18415Z" fill="#9595a5"/>
</svg>
