<svg width="16" height="16" viewBox="0 0 16 16" fill="none" xmlns="http://www.w3.org/2000/svg">
<path d="M14.9467 7.55995L13.7067 6.13995L13.88 4.25995C13.9134 3.92662 13.6867 3.61995 13.3667 3.54662L11.5267 3.13328L10.5667 1.50662C10.3934 1.21995 10.04 1.09995 9.72671 1.23328L8.00005 1.97328L6.27338 1.23328C5.96671 1.09995 5.60671 1.21995 5.44005 1.50662L4.47338 3.12662L2.64005 3.53995C2.31338 3.61328 2.08671 3.91328 2.12005 4.24662L2.29338 6.13328L1.04671 7.55995C0.826714 7.81328 0.826714 8.18662 1.04671 8.43995L2.29338 9.85995L2.12005 11.7466C2.08671 12.08 2.31338 12.3866 2.63338 12.46L4.47338 12.8799L5.43338 14.4999C5.60671 14.7866 5.96671 14.9066 6.27338 14.7733L8.00005 14.02L9.72671 14.7599C10.0334 14.8933 10.3934 14.7733 10.56 14.4866L11.52 12.8666L13.36 12.4466C13.6867 12.3733 13.9067 12.0666 13.8734 11.7333L13.7 9.85328L14.94 8.43328C15.0487 8.31419 15.1095 8.15912 15.1108 7.99789C15.112 7.83667 15.0536 7.68069 14.9467 7.55995V7.55995ZM6.82005 9.88662L5.40671 8.47328C5.34499 8.41156 5.29603 8.33829 5.26263 8.25765C5.22923 8.177 5.21203 8.09057 5.21203 8.00328C5.21203 7.916 5.22923 7.82956 5.26263 7.74892C5.29603 7.66828 5.34499 7.595 5.40671 7.53328C5.46843 7.47156 5.54171 7.4226 5.62235 7.3892C5.70299 7.3558 5.78943 7.3386 5.87671 7.3386C5.964 7.3386 6.05043 7.3558 6.13108 7.3892C6.21172 7.4226 6.28499 7.47156 6.34671 7.53328L7.28671 8.47328L9.64671 6.11328C9.70844 6.05156 9.78171 6.0026 9.86235 5.9692C9.94299 5.93579 10.0294 5.9186 10.1167 5.9186C10.204 5.9186 10.2904 5.93579 10.3711 5.9692C10.4517 6.0026 10.525 6.05156 10.5867 6.11328C10.6484 6.175 10.6974 6.24828 10.7308 6.32892C10.7642 6.40956 10.7814 6.496 10.7814 6.58328C10.7814 6.67057 10.7642 6.757 10.7308 6.83765C10.6974 6.91829 10.6484 6.99156 10.5867 7.05328L7.76005 9.87995C7.50671 10.1466 7.08005 10.1466 6.82005 9.88662V9.88662Z" fill="#6460F1"/>
</svg>
