<svg width="14" height="14" viewBox="0 0 14 14" fill="none" xmlns="http://www.w3.org/2000/svg">
  <circle cx="7" cy="7" r="7" fill="#6460F1"/>
  <path fill-rule="evenodd" clip-rule="evenodd" d="M9.06061 5.15054C9.16348 5.05446 9.30235 5.00038 9.44719 5C9.59204 4.99963 9.73122 5.05298 9.83465 5.14853C9.93808 5.24408 9.99745 5.37415 9.99992 5.51061C10.0024 5.64708 9.94776 5.77898 9.84784 5.87779L6.91352 9.33398C6.86309 9.38516 6.80223 9.42623 6.73456 9.45474C6.6669 9.48326 6.59383 9.49862 6.51972 9.49991C6.44561 9.5012 6.37199 9.4884 6.30325 9.46227C6.23452 9.43614 6.17208 9.39722 6.11967 9.34783L4.17546 7.51515C4.1213 7.46759 4.07786 7.41025 4.04772 7.34652C4.01759 7.2828 4.00139 7.21402 4.00009 7.14427C3.99878 7.07452 4.0124 7.00524 4.04012 6.94055C4.06785 6.87587 4.10912 6.81711 4.16147 6.76779C4.21382 6.71846 4.27617 6.67957 4.34482 6.65345C4.41346 6.62732 4.48699 6.61449 4.56101 6.61572C4.63503 6.61695 4.70804 6.63222 4.77566 6.66061C4.84328 6.689 4.90415 6.72994 4.95462 6.78097L6.49381 8.23063L9.04664 5.16578C9.0512 5.16041 9.05611 5.15532 9.06134 5.15054H9.06061Z" fill="white"/>
</svg>
