<svg width="16" height="14" viewBox="0 0 16 14" fill="none" xmlns="http://www.w3.org/2000/svg">
<path d="M14.9467 6.55995L13.7067 5.13995L13.88 3.25995C13.9134 2.92662 13.6867 2.61995 13.3667 2.54662L11.5267 2.13328L10.5667 0.506617C10.3934 0.21995 10.04 0.0999502 9.72671 0.233283L8.00005 0.973283L6.27338 0.233283C5.96671 0.0999502 5.60671 0.21995 5.44005 0.506617L4.47338 2.12662L2.64005 2.53995C2.31338 2.61328 2.08671 2.91328 2.12005 3.24662L2.29338 5.13328L1.04671 6.55995C0.826714 6.81328 0.826714 7.18662 1.04671 7.43995L2.29338 8.85995L2.12005 10.7466C2.08671 11.08 2.31338 11.3866 2.63338 11.46L4.47338 11.8799L5.43338 13.4999C5.60671 13.7866 5.96671 13.9066 6.27338 13.7733L8.00005 13.0199L9.72671 13.7599C10.0334 13.8933 10.3934 13.7733 10.56 13.4866L11.52 11.8666L13.36 11.4466C13.6867 11.3733 13.9067 11.0666 13.8734 10.7333L13.7 8.85328L14.94 7.43328C15.0487 7.31419 15.1095 7.15912 15.1108 6.99789C15.112 6.83667 15.0536 6.68069 14.9467 6.55995ZM6.82005 8.88662L5.40671 7.47328C5.34499 7.41156 5.29603 7.33829 5.26263 7.25765C5.22923 7.177 5.21203 7.09057 5.21203 7.00328C5.21203 6.916 5.22923 6.82956 5.26263 6.74892C5.29603 6.66828 5.34499 6.595 5.40671 6.53328C5.46843 6.47156 5.54171 6.4226 5.62235 6.3892C5.70299 6.3558 5.78943 6.3386 5.87671 6.3386C5.964 6.3386 6.05043 6.3558 6.13108 6.3892C6.21172 6.4226 6.28499 6.47156 6.34671 6.53328L7.28671 7.47328L9.64671 5.11328C9.70844 5.05156 9.78171 5.0026 9.86235 4.9692C9.943 4.93579 10.0294 4.9186 10.1167 4.9186C10.204 4.9186 10.2904 4.93579 10.3711 4.9692C10.4517 5.0026 10.525 5.05156 10.5867 5.11328C10.6484 5.175 10.6974 5.24828 10.7308 5.32892C10.7642 5.40956 10.7814 5.496 10.7814 5.58328C10.7814 5.67057 10.7642 5.757 10.7308 5.83765C10.6974 5.91829 10.6484 5.99156 10.5867 6.05328L7.76005 8.87995C7.50671 9.14662 7.08005 9.14662 6.82005 8.88662Z" fill="#6460F1"/>
</svg>
