<svg width="16" height="12" viewBox="0 0 16 12" fill="none" xmlns="http://www.w3.org/2000/svg">
<path d="M5.87143 6C5.87143 6.54507 6.08796 7.06781 6.47338 7.45322C6.85879 7.83864 7.38153 8.05517 7.9266 8.05517C8.47166 8.05517 8.9944 7.83864 9.37982 7.45322C9.76524 7.06781 9.98176 6.54507 9.98176 6C9.98176 5.45494 9.76524 4.9322 9.37982 4.54678C8.9944 4.16136 8.47166 3.94484 7.9266 3.94484C7.38153 3.94484 6.85879 4.16136 6.47338 4.54678C6.08796 4.9322 5.87143 5.45494 5.87143 6V6ZM15.894 5.52658C14.1545 1.86215 11.525 0.0180054 8 0.0180054C4.47319 0.0180054 1.84551 1.86215 0.105961 5.52842C0.0361868 5.67616 0 5.83753 0 6.00092C0 6.16431 0.0361868 6.32568 0.105961 6.47342C1.84551 10.1379 4.47502 11.982 8 11.982C11.5268 11.982 14.1545 10.1379 15.894 6.47159C16.0353 6.17433 16.0353 5.82935 15.894 5.52658V5.52658ZM7.9266 9.22955C6.14301 9.22955 4.69705 7.78359 4.69705 6C4.69705 4.21641 6.14301 2.77046 7.9266 2.77046C9.71019 2.77046 11.1561 4.21641 11.1561 6C11.1561 7.78359 9.71019 9.22955 7.9266 9.22955Z" fill="white"/>
</svg>
