<svg width="26" height="19" viewBox="0 0 26 19" fill="none" xmlns="http://www.w3.org/2000/svg" class="view-on">
<path d="M9.32551 9.5C9.32551 10.3656 9.66937 11.1958 10.2815 11.8079C10.8935 12.4199 11.7237 12.7638 12.5893 12.7638C13.4549 12.7638 14.2851 12.4199 14.8972 11.8079C15.5093 11.1958 15.8531 10.3656 15.8531 9.5C15.8531 8.63439 15.5093 7.80422 14.8972 7.19214C14.2851 6.58006 13.4549 6.2362 12.5893 6.2362C11.7237 6.2362 10.8935 6.58006 10.2815 7.19214C9.66937 7.80422 9.32551 8.63439 9.32551 9.5ZM25.2424 8.74816C22.4798 2.92868 18.3039 0 12.7059 0C7.10496 0 2.93195 2.92868 0.169375 8.75107C0.0585668 8.98571 0.00109863 9.24197 0.00109863 9.50146C0.00109863 9.76094 0.0585668 10.0172 0.169375 10.2518C2.93195 16.0713 7.10787 19 12.7059 19C18.3068 19 22.4798 16.0713 25.2424 10.2489C25.4668 9.77684 25.4668 9.22899 25.2424 8.74816ZM12.5893 14.6288C9.7568 14.6288 7.46048 12.3325 7.46048 9.5C7.46048 6.66748 9.7568 4.37117 12.5893 4.37117C15.4218 4.37117 17.7181 6.66748 17.7181 9.5C17.7181 12.3325 15.4218 14.6288 12.5893 14.6288Z" fill="#9595A5"/>
</svg>
