<svg width="26" height="18" viewBox="0 0 26 22" fill="#EAEAF0" xmlns="http://www.w3.org/2000/svg" class="visible-false-svg">
<path d="M12.6095 14.6962C13.4766 14.6962 14.3081 14.3518 14.9212 13.7387C15.5344 13.1255 15.8788 12.294 15.8788 11.4269C15.8788 11.3311 15.8744 11.2363 15.8663 11.1426L12.3252 14.6837C12.4189 14.6918 12.5135 14.6962 12.6095 14.6962ZM23.4309 1.31419L22.1839 0.068343C22.1401 0.024582 22.0808 0 22.0189 0C21.9569 0 21.8976 0.024582 21.8538 0.068343L18.6627 3.26031C16.9023 2.36066 14.9235 1.91084 12.7262 1.91084C7.11586 1.91084 2.92997 4.83279 0.168561 10.6767C0.0575653 10.9117 0 11.1684 0 11.4284C0 11.6883 0.0575653 11.945 0.168561 12.18C1.27196 14.5041 2.6006 16.367 4.1545 17.7685L1.06646 20.8554C1.02269 20.8992 0.998112 20.9585 0.998112 21.0204C0.998112 21.0824 1.02269 21.1417 1.06646 21.1855L2.31259 22.4317C2.35638 22.4754 2.41576 22.5 2.47766 22.5C2.53957 22.5 2.59894 22.4754 2.64273 22.4317L23.4309 1.64462C23.4526 1.62293 23.4699 1.59718 23.4816 1.56883C23.4934 1.54048 23.4994 1.51009 23.4994 1.4794C23.4994 1.44872 23.4934 1.41833 23.4816 1.38998C23.4699 1.36163 23.4526 1.33588 23.4309 1.31419ZM7.47199 11.4269C7.4719 10.5395 7.70167 9.66726 8.13889 8.89508C8.57611 8.1229 9.20589 7.47714 9.96686 7.02069C10.7278 6.56425 11.5941 6.31269 12.4812 6.29053C13.3683 6.26836 14.246 6.47634 15.0288 6.89422L13.6095 8.31345C13.0372 8.13018 12.4254 8.10811 11.8413 8.24966C11.2572 8.3912 10.7234 8.6909 10.2985 9.11586C9.8735 9.54083 9.5738 10.0746 9.43225 10.6587C9.2907 11.2428 9.31277 11.8546 9.49604 12.427L8.07681 13.8462C7.67854 13.1021 7.47074 12.2709 7.47199 11.4269Z"/>
<path d="M25.2839 10.6738C24.2564 8.50982 23.0334 6.74526 21.615 5.38013L17.4075 9.58792C17.7622 10.515 17.8408 11.525 17.6338 12.4959C17.4269 13.4667 16.9432 14.3569 16.2413 15.0588C15.5394 15.7607 14.6493 16.2443 13.6784 16.4513C12.7076 16.6582 11.6976 16.5796 10.7705 16.2249L7.20166 19.7937C8.85734 20.5599 10.6989 20.943 12.7262 20.943C18.3366 20.943 22.5225 18.021 25.2839 12.1771C25.3949 11.9421 25.4525 11.6854 25.4525 11.4254C25.4525 11.1655 25.3949 10.9088 25.2839 10.6738Z" fill="#EAEAF0"/>
</svg>
