<svg width="34" height="34" viewBox="0 0 34 34" fill="none" xmlns="http://www.w3.org/2000/svg">
<rect width="34" height="34" rx="10" fill="#9595A5"/>
<path d="M10.7067 9.28071C10.5181 9.09855 10.2655 8.99776 10.0033 9.00004C9.74108 9.00232 9.49026 9.10749 9.30486 9.29289C9.11945 9.4783 9.01428 9.72911 9.012 9.99131C9.00972 10.2535 9.11052 10.5061 9.29267 10.6947L16.2137 17.6167C16.2637 17.6787 16.3187 17.7347 16.3817 17.7837L23.2917 24.6947C23.3845 24.7876 23.4948 24.8613 23.6161 24.9116C23.7374 24.962 23.8675 24.9879 23.9988 24.9879C24.1302 24.988 24.2602 24.9621 24.3816 24.9119C24.503 24.8617 24.6133 24.7881 24.7062 24.6952C24.7991 24.6024 24.8728 24.4921 24.9231 24.3708C24.9734 24.2495 24.9993 24.1194 24.9994 23.9881C24.9994 23.8567 24.9736 23.7266 24.9234 23.6053C24.8732 23.4839 24.7995 23.3736 24.7067 23.2807L24.0317 22.6057C25.4134 20.8759 26.1091 18.6976 25.9858 16.4871C25.8626 14.2767 24.9291 12.1892 23.3637 10.6237C23.2714 10.5282 23.1611 10.452 23.0391 10.3996C22.9171 10.3472 22.7859 10.3196 22.6531 10.3185C22.5203 10.3173 22.3886 10.3426 22.2657 10.3929C22.1428 10.4432 22.0312 10.5174 21.9373 10.6113C21.8434 10.7052 21.7691 10.8169 21.7189 10.9398C21.6686 11.0627 21.6433 11.1943 21.6444 11.3271C21.6456 11.4599 21.6732 11.5911 21.7256 11.7131C21.778 11.8351 21.8542 11.9455 21.9497 12.0377C23.14 13.2282 23.8616 14.8076 23.9822 16.4868C24.1029 18.1659 23.6146 19.8323 22.6067 21.1807L21.1717 19.7457C21.8071 18.784 22.0909 17.6323 21.975 16.4854C21.8591 15.3385 21.3507 14.2669 20.5357 13.4517C20.3479 13.2639 20.0932 13.1584 19.8277 13.1584C19.5621 13.1584 19.3074 13.2639 19.1197 13.4517C18.9319 13.6395 18.8264 13.8942 18.8264 14.1597C18.8264 14.4253 18.9319 14.6799 19.1197 14.8677C20.0437 15.7907 20.2397 17.1677 19.7067 18.2827L17.7147 16.2907C17.7088 16.2846 17.7028 16.2786 17.6967 16.2727L10.7067 9.28171V9.28071Z" fill="white"/>
<path d="M10.2377 15.1747C10.3061 14.9184 10.2699 14.6454 10.137 14.4157C10.0041 14.1861 9.7855 14.0187 9.52916 13.9502C9.27283 13.8818 8.99982 13.918 8.77018 14.0509C8.54054 14.1837 8.37309 14.4024 8.30466 14.6587C7.50466 17.6587 8.27966 20.9947 10.6357 23.3517C10.7286 23.4446 10.8389 23.5182 10.9602 23.5684C11.0816 23.6187 11.2117 23.6445 11.343 23.6444C11.4744 23.6444 11.6044 23.6185 11.7258 23.5682C11.8471 23.5178 11.9573 23.4441 12.0502 23.3512C12.143 23.2583 12.2166 23.148 12.2669 23.0267C12.3171 22.9053 12.3429 22.7752 12.3429 22.6439C12.3428 22.5125 12.3169 22.3825 12.2666 22.2611C12.2163 22.1398 12.1426 22.0296 12.0497 21.9367C11.1804 21.068 10.5553 19.9857 10.2372 18.7986C9.9191 17.6116 9.91926 16.3617 10.2377 15.1747Z" fill="white"/>
<path d="M14.3996 18.4877C14.3371 18.3682 14.2511 18.2626 14.1467 18.1772C14.0423 18.0918 13.9217 18.0284 13.7922 17.9908C13.6626 17.9533 13.5269 17.9423 13.393 17.9585C13.2591 17.9748 13.1299 18.018 13.0131 18.0855C12.8963 18.153 12.7944 18.2434 12.7135 18.3513C12.6326 18.4592 12.5743 18.5823 12.5423 18.7133C12.5102 18.8443 12.5049 18.9805 12.5268 19.1135C12.5487 19.2466 12.5973 19.3739 12.6696 19.4877C12.8836 19.8587 13.1496 20.2077 13.4646 20.5227C13.6532 20.7049 13.9058 20.8057 14.168 20.8034C14.4302 20.8011 14.681 20.6959 14.8665 20.5105C15.0519 20.3251 15.157 20.0743 15.1593 19.8121C15.1616 19.5499 15.0608 19.2973 14.8786 19.1087C14.6876 18.9177 14.5286 18.7087 14.4006 18.4867L14.3996 18.4877Z" fill="white"/>
</svg>
