<svg width="16" height="12" viewBox="0 0 16 12" fill="none" xmlns="http://www.w3.org/2000/svg">
<path fill-rule="evenodd" clip-rule="evenodd" d="M13.3629 11.9994C13.5409 11.9912 13.7072 11.9032 13.8221 11.7566C15.0631 10.1705 15.7464 8.15339 15.7461 6.07698C15.7461 3.91891 15.0153 1.84234 13.6884 0.230439C13.572 0.0891865 13.4065 0.005734 13.2315 0.000376159C13.0472 -0.00595584 12.8865 0.0679174 12.7628 0.202026L12.6794 0.292135C12.4426 0.548662 12.4313 0.959593 12.6538 1.23106C13.7516 2.56824 14.3563 4.28925 14.3563 6.07698C14.3563 7.79572 13.7914 9.46671 12.7661 10.7825C12.5539 11.0549 12.5697 11.4574 12.8031 11.7091L12.8866 11.7992C13.0063 11.9282 13.1679 12 13.3363 12C13.3453 12 13.3542 11.9997 13.3629 11.9994ZM7.99983 11.2261C7.99983 11.5263 7.83707 11.799 7.58237 11.9264C7.48389 11.976 7.37836 12 7.27352 12C7.1075 12 6.94303 11.9392 6.81017 11.8218L2.84042 8.31567H0.726132C0.32517 8.31604 0 7.96927 0 7.54191V4.45842C0 4.03087 0.32517 3.68429 0.726132 3.68429H2.84059L6.81035 0.178196C7.02724 -0.0134114 7.32801 -0.0542609 7.58254 0.0739661C7.83707 0.201277 8 0.474218 8 0.774269L7.99983 11.2261ZM10.9685 9.99804C10.9514 9.99929 10.9351 10 10.9182 10C10.7338 10 10.556 9.92137 10.4246 9.77944L10.3312 9.67834C10.0863 9.41463 10.0576 8.99687 10.2638 8.69697C10.7867 7.93633 11.0627 7.03465 11.0627 6.08875C11.0627 5.07136 10.7493 4.11708 10.1564 3.32899C9.93068 3.02944 9.9515 2.59438 10.2045 2.32158L10.2977 2.22084C10.4372 2.07035 10.6241 1.98833 10.8263 2.00135C11.0233 2.01204 11.2073 2.11207 11.3322 2.27682C12.1547 3.36269 12.5891 4.68106 12.5891 6.08893C12.5891 7.40017 12.2049 8.64829 11.4778 9.69778C11.3563 9.87269 11.1706 9.98253 10.9685 9.99804Z" fill="white"/>
</svg>
