<svg width="15" height="14" viewBox="0 0 15 14" fill="none" xmlns="http://www.w3.org/2000/svg">
<path fill-rule="evenodd" clip-rule="evenodd" d="M8.84609 13.9141C9.14325 13.7656 9.33313 13.4473 9.33313 13.0971L9.33333 0.903314C9.33333 0.553254 9.14325 0.234823 8.84629 0.0862938C8.54934 -0.0633044 8.19845 -0.0156467 7.9454 0.207896L3.31403 4.29834H0.847154C0.379365 4.29834 0 4.70268 0 5.20148V8.7989C0 9.29749 0.379365 9.70204 0.847154 9.70161H3.31383L7.9452 13.7921C8.1002 13.929 8.29208 14 8.48578 14C8.60809 14 8.7312 13.972 8.84609 13.9141ZM12.7965 11.6644C12.7767 11.6658 12.7576 11.6667 12.7379 11.6667C12.5228 11.6667 12.3153 11.5749 12.1621 11.4093L12.0531 11.2914C11.7674 10.9837 11.7339 10.4963 11.9745 10.1465C12.5845 9.25905 12.9064 8.20709 12.9064 7.10355C12.9064 5.91659 12.5409 4.80326 11.8491 3.88382C11.5858 3.53434 11.6101 3.02678 11.9053 2.70851L12.014 2.59098C12.1767 2.41541 12.3948 2.31972 12.6307 2.3349C12.8605 2.34738 13.0751 2.46408 13.2209 2.65629C14.1804 3.92313 14.6873 5.46123 14.6873 7.10375C14.6873 8.63353 14.239 10.0897 13.3907 11.3141C13.249 11.5181 13.0323 11.6463 12.7965 11.6644Z" fill="#9595A5"/>
</svg>
