<svg width="16" height="12" viewBox="0 0 16 12" fill="none" xmlns="http://www.w3.org/2000/svg">
<path fill-rule="evenodd" clip-rule="evenodd" d="M7.58237 11.9264C7.83707 11.7991 7.99983 11.5263 7.99983 11.2261L8 0.774319C8 0.47427 7.83707 0.201321 7.58253 0.0740019C7.328 -0.0542939 7.02724 -0.0134004 6.81035 0.17825L2.84059 3.68435H0.726135C0.325165 3.68435 0 4.03091 0 4.4584V7.5419C0 7.96927 0.325165 8.31607 0.726135 8.3157H2.84042L6.81018 11.8218C6.94302 11.9392 7.1075 12 7.27353 12C7.37836 12 7.48389 11.976 7.58237 11.9264ZM15.8462 4.14407L13.99 6.00027L15.8462 7.85635C16.0513 8.06106 16.0513 8.39358 15.8462 8.59878L15.5987 8.84622C15.394 9.0513 15.0615 9.0513 14.8563 8.84622L13.0002 6.99002L11.144 8.84622C10.9392 9.0513 10.6067 9.0513 10.4016 8.84622L10.1542 8.59878C9.94905 8.39395 9.94905 8.06155 10.1542 7.85635L12.0103 6.00027L10.1538 4.1437C9.94873 3.93899 9.94873 3.60647 10.1538 3.40127L10.4016 3.15384C10.6064 2.94876 10.9389 2.94876 11.144 3.15384L13.0002 5.0104L14.8563 3.1542C15.0611 2.94912 15.3936 2.94912 15.5987 3.1542L15.8462 3.40164C16.0513 3.60647 16.0513 3.93899 15.8462 4.14407Z" fill="white"/>
</svg>
